<svg width="18" height="14" viewBox="0 0 18 14" fill="none" xmlns="http://www.w3.org/2000/svg">
<path fill-rule="evenodd" clip-rule="evenodd" d="M3.41559 3.72431e-07H13.8C14.1775 -8.23536e-06 14.5033 -1.69231e-05 14.773 0.0183779C15.0569 0.0377541 15.3409 0.0803628 15.6215 0.196568C16.2542 0.458658 16.757 0.961379 17.019 1.59412C17.1352 1.87467 17.1778 2.15865 17.1972 2.44256C17.2156 2.71221 17.2156 3.038 17.2156 3.41558V10.3569C17.2156 10.7344 17.2156 11.0602 17.1972 11.3299C17.1778 11.6138 17.1352 11.8978 17.019 12.1784C16.757 12.8111 16.2542 13.3138 15.6215 13.5759C15.3409 13.6921 15.0569 13.7347 14.773 13.7541C14.5033 13.7725 14.1775 13.7725 13.8 13.7725H3.41558C3.038 13.7725 2.71221 13.7725 2.44256 13.7541C2.15865 13.7347 1.87467 13.6921 1.59412 13.5759C0.961378 13.3138 0.458658 12.8111 0.196568 12.1784C0.0803626 11.8978 0.0377541 11.6138 0.0183779 11.3299C-1.69231e-05 11.0602 -8.23536e-06 10.7344 3.72431e-07 10.3569V3.41559C-8.23536e-06 3.03801 -1.69231e-05 2.71221 0.0183779 2.44256C0.0377541 2.15865 0.0803626 1.87467 0.196568 1.59412C0.458658 0.961379 0.961378 0.458658 1.59412 0.196568C1.87467 0.0803628 2.15865 0.0377541 2.44256 0.0183779C2.71221 -1.69231e-05 3.03801 -8.23536e-06 3.41559 3.72431e-07ZM1.99481 1.96066C2.30787 1.60289 2.85167 1.56664 3.20945 1.87968L8.04097 6.10723C8.36548 6.3912 8.8501 6.3912 9.17461 6.10723L14.0062 1.87968C14.3639 1.56664 14.9077 1.60289 15.2207 1.96066C15.5338 2.31843 15.4975 2.86224 15.1398 3.17528L10.3083 7.40287C9.33463 8.25478 7.88095 8.25478 6.90732 7.40287L2.07579 3.17528C1.71802 2.86224 1.68176 2.31843 1.99481 1.96066Z" fill="#EFEFEF"/>
</svg>
